<?xml version="1.0" standalone="no"?>
<!DOCTYPE svg PUBLIC "-//W3C//DTD SVG 20010904//EN"
 "http://www.w3.org/TR/2001/REC-SVG-20010904/DTD/svg10.dtd">
<svg version="1.0" xmlns="http://www.w3.org/2000/svg"
 width="1280.000000pt" height="923.000000pt" viewBox="0 0 1280.000000 923.000000"
 preserveAspectRatio="xMidYMid meet">
<metadata>
Created by potrace 1.15, written by Peter Selinger 2001-2017
</metadata>
<g transform="translate(0.000000,923.000000) scale(0.100000,-0.100000)"
fill="#4caf50" stroke="none">
<path d="M10445 9220 c-33 -5 -89 -16 -123 -25 -35 -8 -67 -13 -72 -10 -5 3
-24 -7 -42 -23 -18 -15 -52 -40 -74 -55 -23 -16 -65 -50 -95 -78 -29 -27 -61
-49 -71 -49 -28 0 -69 24 -103 59 -25 27 -28 34 -17 51 7 11 18 29 24 40 26
41 7 44 -320 48 -204 2 -315 7 -330 14 -18 9 -33 8 -70 -5 -26 -9 -87 -19
-137 -22 -858 -61 -2228 -426 -3245 -865 -1219 -525 -2488 -1352 -3270 -2129
-85 -85 -161 -155 -167 -155 -7 -1 -32 -29 -55 -63 -24 -35 -92 -120 -152
-190 -331 -389 -557 -763 -715 -1184 -115 -309 -201 -660 -287 -1184 -30 -187
-80 -488 -110 -670 -64 -388 -117 -640 -181 -860 -25 -88 -47 -186 -49 -217
-3 -64 -4 -66 -315 -518 -240 -351 -369 -578 -430 -762 -81 -240 -28 -363 156
-363 83 0 152 28 243 98 127 98 350 367 339 409 -7 24 -6 25 111 241 61 112
88 154 92 142 6 -16 24 -18 146 -21 216 -4 349 -27 814 -140 146 -36 319 -76
386 -89 386 -79 689 -69 919 30 l86 37 117 -23 c103 -21 144 -24 347 -23 211
0 241 2 360 28 294 61 576 188 786 352 l55 44 127 0 c644 0 1253 203 1711 570
56 45 111 79 150 94 79 30 162 72 202 101 21 16 51 25 100 30 456 46 797 237
965 540 l33 60 -94 -98 c-207 -218 -326 -280 -611 -322 -516 -74 -840 -51
-1275 94 -169 56 -296 112 -595 262 -421 210 -670 309 -914 361 -95 20 -136
23 -300 22 -212 -1 -250 -8 -250 -45 0 -27 -17 -23 241 -64 292 -46 602 -135
929 -265 214 -86 315 -131 640 -286 143 -68 309 -139 369 -159 131 -43 312
-80 461 -95 60 -6 111 -13 113 -14 4 -4 -180 -32 -313 -48 -55 -6 -197 -11
-315 -11 -292 0 -475 25 -835 114 -277 69 -331 85 -919 279 -219 72 -455 147
-524 166 -559 153 -1133 163 -1662 29 -185 -47 -416 -127 -528 -184 -87 -44
-88 -38 -12 62 l71 95 227 135 c385 229 600 346 822 447 576 264 1043 374
1448 342 450 -36 775 -142 1593 -520 580 -268 957 -381 1381 -414 243 -19 528
16 733 89 192 69 387 187 559 339 55 49 97 83 92 76 -4 -6 -5 -12 -2 -12 9 0
145 180 216 285 37 55 109 172 162 260 355 597 470 831 535 1089 l26 101 78
75 c99 95 167 175 232 270 28 41 101 143 163 225 371 499 522 813 554 1155 14
146 54 294 92 338 29 34 35 56 18 67 -5 3 -10 21 -10 40 0 51 -16 50 -40 -2
-17 -39 -33 -55 -83 -85 -103 -62 -139 -72 -267 -72 -128 -1 -183 11 -230 50
-34 29 -39 61 -14 103 13 22 45 39 153 81 385 150 668 307 889 493 87 73 102
105 55 117 -21 5 -21 8 26 87 26 46 83 160 127 254 49 106 93 188 116 214 21
24 38 53 38 64 0 28 19 58 101 157 172 208 355 336 769 537 135 66 247 121
250 124 11 10 -28 23 -70 23 -57 0 -160 -17 -212 -34 -38 -14 -43 -13 -113 19
-41 19 -135 57 -209 85 -75 28 -168 64 -209 80 -82 33 -491 106 -747 134 -294
33 -628 44 -765 26z m611 -69 c201 -12 416 -41 411 -55 -2 -7 -56 -13 -143
-17 -167 -7 -301 -34 -482 -95 -339 -114 -676 -300 -1032 -570 -52 -39 -124
-84 -160 -98 -36 -15 -155 -63 -265 -107 -418 -169 -997 -441 -1399 -658 -82
-45 -151 -81 -153 -81 -2 0 25 25 61 55 85 72 183 184 335 380 170 219 258
319 402 461 205 200 414 354 668 493 148 82 355 176 347 158 -52 -125 -15
-202 99 -202 29 0 51 -3 48 -8 -7 -12 -248 -214 -343 -288 -47 -37 -186 -135
-310 -219 -308 -209 -496 -357 -477 -376 9 -10 168 79 322 180 160 105 736
525 888 648 56 45 156 137 223 205 83 85 134 128 165 141 42 18 148 46 209 55
50 8 439 6 586 -2z m-1712 -145 c-145 -77 -271 -169 -433 -315 -108 -97 -250
-253 -509 -555 -338 -396 -563 -612 -782 -755 -47 -30 -89 -60 -95 -67 -5 -7
-47 -33 -92 -58 -101 -56 -483 -287 -611 -368 -120 -76 -136 -81 -87 -27 63
69 179 226 325 439 183 269 281 398 403 537 391 442 895 822 1474 1112 l143
71 137 14 c225 22 221 23 127 -28z m2321 1 l200 -4 165 -55 c91 -31 204 -71
253 -88 l88 -32 -88 -50 c-107 -61 -152 -93 -310 -220 -68 -54 -127 -98 -132
-98 -6 0 -59 -20 -118 -44 -439 -179 -782 -234 -1693 -271 -348 -15 -522 -25
-660 -41 -30 -4 -53 -4 -50 -1 8 8 434 161 600 215 367 120 885 260 1203 327
78 17 102 34 78 58 -22 22 -402 -45 -731 -128 -192 -48 -467 -130 -573 -169
-102 -39 -102 -31 0 23 50 27 140 78 200 114 146 87 322 186 412 232 190 95
441 173 686 214 66 11 131 22 145 24 14 3 48 3 75 1 28 -3 140 -6 250 -7z
m-3005 -51 c0 -2 -48 -35 -107 -74 -289 -188 -536 -400 -978 -839 -229 -227
-342 -363 -584 -706 -240 -340 -338 -463 -481 -608 -115 -116 -151 -144 -445
-346 -176 -121 -322 -219 -324 -217 -2 2 17 27 41 56 106 126 218 311 324 535
35 74 64 138 64 141 0 4 -36 -62 -80 -146 -198 -378 -343 -564 -595 -762 -31
-25 -64 -52 -74 -61 -9 -8 -104 -82 -211 -164 -182 -139 -612 -474 -708 -553
-39 -32 -33 -21 71 134 154 230 295 468 563 951 372 671 494 875 678 1138 113
163 298 392 410 510 l86 90 -31 -68 c-23 -54 -27 -72 -18 -83 22 -27 47 -13
125 73 347 382 456 475 691 592 114 57 361 156 369 148 2 -2 -18 -19 -45 -38
-123 -86 -292 -250 -457 -444 -101 -118 -305 -398 -369 -505 -63 -107 -189
-350 -181 -350 2 0 30 48 62 107 127 231 313 490 497 693 222 245 474 441 742
577 170 86 235 107 450 142 150 25 464 74 508 80 4 1 7 -1 7 -3z m-2241 -583
c-188 -180 -373 -411 -605 -758 -222 -330 -333 -529 -698 -1243 -313 -613
-414 -794 -598 -1072 -97 -147 -118 -172 -191 -230 -63 -50 -604 -497 -701
-579 -24 -20 -22 -17 71 121 150 220 312 528 453 858 34 80 134 325 222 545
163 407 265 627 378 815 284 473 673 894 1293 1402 l158 130 137 44 c75 24
144 48 152 54 43 28 20 0 -71 -87z m5199 -135 c-108 -172 -173 -268 -181 -268
-6 0 -24 -10 -41 -23 -38 -29 -194 -96 -303 -130 -244 -77 -472 -117 -868
-152 -355 -32 -495 -56 -655 -114 -89 -33 -193 -91 -250 -140 -31 -26 -33 -31
-20 -45 13 -14 37 -11 235 25 121 22 461 80 755 129 294 50 573 99 620 109 47
11 87 18 88 16 7 -6 -189 -117 -286 -162 -477 -224 -941 -313 -1962 -378 -640
-41 -1041 -83 -1340 -141 -24 -5 -32 -3 -25 4 6 5 165 103 355 217 338 203
653 400 797 497 40 26 78 48 86 48 7 0 18 5 24 11 8 8 16 7 30 -2 17 -10 30
-4 104 55 135 107 323 189 525 230 195 40 286 46 809 55 726 13 875 19 1017
37 161 21 325 63 418 107 41 19 77 36 79 36 2 1 -3 -9 -11 -21z m-6089 -275
c-193 -188 -316 -328 -489 -558 -409 -545 -554 -824 -840 -1625 -149 -418
-240 -642 -345 -855 -85 -172 -210 -380 -287 -478 -27 -33 -271 -247 -283
-247 -2 0 22 40 54 88 95 142 169 268 237 402 146 291 188 453 269 1024 78
547 129 746 260 1005 203 405 486 686 1080 1073 99 65 252 164 340 222 88 57
161 105 163 105 2 1 -69 -70 -159 -156z m3157 -148 c-11 -8 -27 -15 -35 -15
-10 1 -7 6 9 15 33 19 50 18 26 0z m-77 -29 c-2 -2 -179 -111 -394 -243 -214
-132 -526 -326 -693 -431 -169 -106 -325 -198 -355 -207 -90 -30 -184 -85
-228 -134 -22 -25 -48 -54 -57 -63 -40 -41 -929 -621 -976 -638 -215 -73 -451
-238 -548 -380 -25 -37 -96 -95 -293 -243 -729 -544 -1347 -1078 -1970 -1702
-525 -525 -908 -961 -1322 -1505 -85 -111 -154 -192 -173 -203 -26 -14 -30
-20 -21 -31 9 -11 -2 -33 -52 -102 -244 -340 -510 -774 -742 -1211 -124 -233
-178 -307 -333 -454 -161 -154 -216 -177 -277 -116 -58 58 -71 160 -34 269 36
109 154 338 246 478 119 180 535 772 691 985 371 503 712 894 1118 1281 392
375 658 604 1469 1269 248 203 574 473 725 600 1214 1020 2217 1722 3365 2355
260 144 892 459 854 426z m2559 -328 l-63 -122 -86 -37 c-85 -37 -227 -102
-684 -314 -438 -203 -658 -290 -1025 -403 -647 -200 -1068 -294 -1500 -332
-63 -6 -342 -15 -620 -20 -305 -5 -567 -15 -660 -24 -156 -16 -355 -47 -419
-66 -19 -5 -36 -8 -39 -6 -16 17 798 536 840 536 9 0 23 9 31 20 8 11 77 58
153 104 150 90 182 101 380 130 144 22 646 50 1289 71 242 8 517 20 610 25
837 50 1392 204 1763 491 48 37 88 68 90 68 2 1 -25 -54 -60 -121z m-6654 -50
c-154 -160 -346 -420 -447 -608 -93 -172 -173 -410 -221 -657 -14 -72 -41
-256 -61 -409 -73 -573 -121 -773 -254 -1049 -67 -140 -113 -214 -265 -424
-108 -151 -116 -159 -311 -326 -316 -269 -323 -275 -300 -240 260 404 393 785
555 1580 97 475 163 717 278 1013 56 146 80 185 42 71 -11 -35 -23 -80 -26
-100 -5 -32 -3 -38 17 -44 35 -12 48 8 253 383 267 488 367 605 700 819 45 28
85 52 91 52 5 1 -18 -27 -51 -61z m-694 -365 c-197 -238 -362 -545 -484 -901
-94 -274 -152 -508 -257 -1037 -158 -791 -274 -1115 -540 -1506 -33 -47 -59
-90 -59 -96 0 -6 -39 -46 -87 -89 -49 -42 -114 -103 -146 -133 -31 -30 -57
-52 -57 -48 0 4 18 40 39 80 90 165 178 432 231 697 34 170 47 258 95 635 46
366 68 493 110 646 85 309 198 552 504 1093 81 143 164 291 184 327 31 56 52
78 134 141 166 126 396 288 410 288 2 0 -33 -43 -77 -97z m6256 -392 c2 -77
70 -149 181 -192 46 -17 79 -22 158 -22 55 -1 117 4 138 11 35 10 37 9 25 -5
-18 -22 -200 -179 -283 -244 -617 -484 -1271 -691 -2410 -764 -132 -8 -427
-22 -655 -30 -1145 -42 -1713 -98 -2130 -212 -144 -39 -314 -99 -419 -149 -52
-24 -96 -43 -97 -41 -4 4 275 228 573 460 135 106 209 157 226 157 16 0 33 12
51 34 14 19 65 63 113 97 49 35 126 92 173 128 94 72 163 106 290 145 297 90
685 123 1320 112 216 -4 443 -3 555 4 482 26 929 133 1865 444 173 58 317 105
320 106 3 0 6 -18 6 -39z m654 -146 c0 -8 -4 -15 -9 -15 -13 0 -22 16 -14 24
11 11 23 6 23 -9z m-40 -15 c0 -5 -5 -10 -11 -10 -5 0 -7 5 -4 10 3 6 8 10 11
10 2 0 4 -4 4 -10z m-65 -199 c-178 -510 -530 -857 -1114 -1096 -226 -93 -437
-158 -951 -296 -162 -43 -305 -83 -317 -89 -16 -6 -23 -18 -23 -36 l0 -27 93
7 c623 46 1330 289 1791 617 100 71 284 243 342 319 21 27 40 48 42 45 2 -2
-16 -43 -42 -90 -101 -191 -279 -453 -304 -448 -6 2 -46 -43 -90 -100 -371
-480 -805 -789 -1477 -1052 -366 -143 -710 -234 -1060 -281 -183 -25 -581 -25
-720 -1 -215 38 -411 97 -790 239 -589 221 -747 255 -1164 245 -256 -6 -362
-19 -598 -77 -386 -96 -782 -272 -1092 -487 -35 -24 -65 -43 -66 -41 -4 4 600
589 760 737 85 78 115 100 131 96 14 -3 29 4 45 21 29 32 59 47 224 117 468
199 906 289 1340 274 321 -11 490 -46 950 -197 483 -158 652 -199 890 -215
110 -7 292 7 398 31 80 19 88 41 11 34 -27 -3 -137 -5 -244 -4 -290 1 -420 29
-966 207 -462 151 -620 188 -903 209 -333 24 -722 -29 -1096 -149 -115 -37
-331 -121 -394 -152 -20 -10 -47 -22 -60 -26 -50 -15 133 129 277 218 542 336
1258 476 2437 477 568 1 1259 27 1595 60 1111 110 1797 414 2121 939 30 48 55
85 57 81 1 -3 -13 -53 -33 -109z m-7740 -154 c-82 -166 -165 -369 -230 -563
-94 -279 -141 -496 -189 -866 -14 -109 -38 -287 -52 -395 -60 -459 -141 -759
-283 -1042 -28 -54 -47 -101 -44 -104 3 -4 -55 -66 -129 -139 l-134 -133 39
98 c95 242 133 462 177 1032 37 479 93 768 215 1125 74 216 178 451 130 294
-46 -152 -89 -409 -106 -640 -12 -163 -10 -194 13 -194 9 0 24 53 46 168 104
539 274 1012 462 1292 52 77 137 190 143 190 1 0 -25 -55 -58 -123z m-354
-115 c-198 -297 -371 -741 -460 -1180 -50 -240 -64 -370 -81 -727 -32 -684
-79 -938 -222 -1218 -62 -120 -105 -179 -239 -328 -57 -63 -151 -173 -208
-245 -127 -158 -139 -170 -118 -129 25 50 84 223 121 353 65 230 106 459 176
992 78 596 103 728 185 975 74 221 137 363 438 990 l124 259 153 158 c83 87
156 158 160 158 5 0 -8 -26 -29 -58z m-611 -691 c-116 -231 -246 -566 -340
-876 -81 -269 -119 -481 -170 -960 -54 -501 -90 -747 -141 -950 -24 -97 -83
-279 -116 -358 -13 -32 -22 -61 -19 -65 2 -4 -29 -52 -71 -107 -41 -55 -104
-143 -141 -195 -60 -88 -93 -130 -80 -105 3 6 47 87 98 180 144 262 196 380
250 564 80 273 119 766 61 766 -21 0 -28 -33 -61 -320 -47 -398 -82 -539 -175
-710 -72 -133 -76 -133 -45 0 56 237 86 399 184 965 102 587 157 838 253 1150
100 324 253 659 413 905 122 186 155 224 100 116z m7614 -1097 c-137 -311
-157 -348 -244 -449 -293 -339 -614 -545 -1045 -669 -206 -59 -363 -80 -910
-121 -304 -23 -320 -26 -320 -50 0 -16 9 -22 45 -28 90 -14 514 -20 646 -8
568 52 1024 219 1372 503 l74 61 -28 -44 c-114 -180 -182 -291 -203 -329 -17
-33 -44 -59 -100 -97 -42 -28 -143 -107 -226 -174 -248 -203 -325 -259 -430
-310 -300 -145 -724 -159 -1222 -38 -258 62 -523 166 -1023 399 -486 227 -647
294 -831 349 -459 135 -945 135 -1454 1 -400 -106 -888 -326 -1424 -645 -62
-37 -114 -65 -116 -63 -11 11 608 724 653 754 14 9 79 62 146 119 245 206 458
350 671 455 168 83 293 127 509 180 327 80 573 111 881 112 427 0 610 -41
1195 -270 524 -205 664 -236 1060 -236 283 0 375 9 655 69 559 121 1298 428
1690 702 39 27 71 49 73 47 2 -1 -40 -100 -94 -220z m-6047 -1903 c405 -55
734 -138 1363 -346 447 -148 608 -197 799 -245 308 -77 535 -110 766 -111
l140 0 -200 -101 c-419 -212 -693 -307 -1015 -354 -161 -23 -470 -15 -625 16
-290 57 -483 125 -1030 360 -577 248 -818 331 -1133 392 -158 30 -501 33 -630
5 -114 -25 -234 -69 -325 -121 -42 -24 -74 -38 -69 -31 4 7 47 69 97 138 l90
127 135 58 c293 128 595 205 920 236 120 11 570 -4 717 -23z m-941 -485 c333
-70 573 -160 1220 -459 502 -232 642 -280 943 -323 58 -8 106 -16 108 -18 5
-4 -294 -141 -407 -186 -215 -85 -249 -93 -378 -87 -228 10 -392 72 -826 311
-393 216 -535 277 -733 311 -87 15 -220 20 -261 9 -39 -11 -22 -38 28 -47 328
-60 459 -110 1025 -397 240 -121 402 -196 460 -214 141 -44 141 -45 -15 -45
-157 -1 -263 9 -406 39 -82 17 -99 17 -190 5 -54 -7 -146 -16 -202 -19 -96 -6
-104 -5 -109 12 -4 17 -18 20 -106 25 -165 10 -277 48 -642 220 -255 120 -381
157 -542 157 -106 0 -108 -26 -3 -50 95 -22 257 -84 490 -187 124 -55 243
-106 265 -113 22 -7 44 -16 49 -20 12 -12 -101 11 -339 69 -320 77 -420 92
-650 98 -110 3 -232 1 -272 -4 l-72 -9 18 30 c10 17 55 94 101 171 88 149 106
174 97 138 -3 -13 -3 -23 -1 -23 2 0 24 16 49 35 144 110 351 155 555 121 52
-8 96 -13 98 -12 5 6 -118 33 -233 52 -126 20 -268 15 -342 -14 -30 -11 -50
-15 -46 -9 39 67 106 157 117 157 8 0 38 21 68 46 157 135 345 222 544 254 33
5 140 7 239 5 143 -3 205 -9 301 -29z"/>
<path d="M2540 1096 c0 -14 483 -276 507 -276 5 0 -46 29 -112 63 -66 35 -172
93 -235 129 -144 81 -160 90 -160 84z"/>
</g>
</svg>
